<svg width="40" height="40" viewBox="0 0 40 40" fill="none" xmlns="http://www.w3.org/2000/svg">
<path fill-rule="evenodd" clip-rule="evenodd" d="M9.98433 13.8691C11.1907 12.5971 11.6179 12.2403 12.1315 12.0755C12.4875 11.9819 12.861 11.9764 13.2195 12.0595C13.6915 12.1971 13.8147 12.3011 15.3635 13.8419C16.7235 15.1955 16.8579 15.3427 16.9891 15.6019C17.2428 16.0684 17.2836 16.6216 17.1011 17.1202C16.9667 17.4962 16.7683 17.7458 15.9443 18.5746L15.4067 19.1138C15.2653 19.2573 15.2318 19.4754 15.3235 19.6546C16.5169 21.6908 18.2097 23.389 20.2419 24.589C20.4763 24.7148 20.7651 24.674 20.9555 24.4882L21.4723 23.9794C21.7916 23.6518 22.1299 23.343 22.4851 23.0546C23.0422 22.71 23.7377 22.6767 24.3251 22.9666C24.6115 23.101 24.7075 23.189 26.1107 24.5874C27.5507 26.0274 27.5971 26.0738 27.7587 26.405C28.0604 26.9537 28.0574 27.6193 27.7507 28.165C27.5907 28.4722 27.5011 28.5842 26.6883 29.4146C26.1971 29.917 25.7283 30.3746 25.6611 30.4418C24.9899 30.9967 24.1294 31.2692 23.2611 31.2018C21.6726 31.0565 20.1353 30.565 18.7571 29.7618C15.7025 28.1434 13.1022 25.7852 11.1939 22.9026C10.7766 22.3001 10.4055 21.6668 10.0835 21.0082C9.22579 19.5378 8.78235 17.8625 8.80033 16.1603C8.86484 15.2667 9.29276 14.4386 9.98433 13.8691Z" stroke="#00863B" stroke-width="2.5" stroke-linecap="round" stroke-linejoin="round"/>
<mask id="path-2-inside-1_1531_5772" fill="white">
<path d="M23.747 7.67048C23.1231 7.4466 22.4361 7.77077 22.2121 8.39456C21.9882 9.01834 22.3124 9.70551 22.9362 9.9294L23.747 7.67048ZM30.0591 16.9331C30.2935 17.5531 30.986 17.8655 31.606 17.6311C32.2258 17.3967 32.5385 16.7043 32.3041 16.0844L30.0591 16.9331ZM21.846 11.2342C21.1994 11.0882 20.557 11.4939 20.4111 12.1404C20.265 12.7869 20.6708 13.4293 21.3172 13.5753L21.846 11.2342ZM26.5116 18.6838C26.6684 19.3278 27.3175 19.7227 27.9614 19.5659C28.6054 19.4091 29.0002 18.7601 28.8436 18.1161L26.5116 18.6838ZM22.9362 9.9294C26.2214 11.1085 28.8247 13.6683 30.0591 16.9331L32.3041 16.0844C30.8212 12.1622 27.6937 9.08701 23.747 7.67048L22.9362 9.9294ZM21.3172 13.5753C23.8783 14.1537 25.8906 16.1328 26.5116 18.6838L28.8436 18.1161C28.007 14.6795 25.2959 12.0134 21.846 11.2342L21.3172 13.5753Z"/>
</mask>
<path d="M23.747 7.67048C23.1231 7.4466 22.4361 7.77077 22.2121 8.39456C21.9882 9.01834 22.3124 9.70551 22.9362 9.9294L23.747 7.67048ZM30.0591 16.9331C30.2935 17.5531 30.986 17.8655 31.606 17.6311C32.2258 17.3967 32.5385 16.7043 32.3041 16.0844L30.0591 16.9331ZM21.846 11.2342C21.1994 11.0882 20.557 11.4939 20.4111 12.1404C20.265 12.7869 20.6708 13.4293 21.3172 13.5753L21.846 11.2342ZM26.5116 18.6838C26.6684 19.3278 27.3175 19.7227 27.9614 19.5659C28.6054 19.4091 29.0002 18.7601 28.8436 18.1161L26.5116 18.6838ZM22.9362 9.9294C26.2214 11.1085 28.8247 13.6683 30.0591 16.9331L32.3041 16.0844C30.8212 12.1622 27.6937 9.08701 23.747 7.67048L22.9362 9.9294ZM21.3172 13.5753C23.8783 14.1537 25.8906 16.1328 26.5116 18.6838L28.8436 18.1161C28.007 14.6795 25.2959 12.0134 21.846 11.2342L21.3172 13.5753Z" fill="#00863B"/>
<path d="M22.9362 9.9294L24.1128 10.3516L24.9235 8.09273L23.747 7.67048L22.5704 7.24823L21.7597 9.50715L22.9362 9.9294ZM32.3041 16.0844L31.862 14.9151L29.6171 15.7638L30.0591 16.9331L30.5011 18.1023L32.7461 17.2536L32.3041 16.0844ZM21.3172 13.5753L22.5365 13.8507L23.0653 11.5096L21.846 11.2342L20.6267 10.9588L20.0979 13.2999L21.3172 13.5753ZM28.8436 18.1161L28.5479 16.9016L26.2159 17.4692L26.5116 18.6838L26.8072 19.8983L29.1392 19.3306L28.8436 18.1161ZM23.747 7.67048L24.5915 5.31745L24.5914 5.31743L23.747 7.67048ZM22.2121 8.39456L19.8592 7.54965L19.859 7.55017L22.2121 8.39456ZM22.9362 9.9294L23.7808 7.57637L23.7807 7.57634L22.9362 9.9294ZM30.0591 16.9331L32.3976 16.049L32.3976 16.0489L30.0591 16.9331ZM31.606 17.6311L32.4901 19.9696L32.4903 19.9695L31.606 17.6311ZM32.3041 16.0844L29.9656 16.9685L29.9657 16.9685L32.3041 16.0844ZM21.846 11.2342L22.3968 8.79563L22.3966 8.7956L21.846 11.2342ZM20.4111 12.1404L22.8496 12.6914L22.8498 12.6908L20.4111 12.1404ZM21.3172 13.5753L20.7664 16.0138L20.7665 16.0139L21.3172 13.5753ZM26.5116 18.6838L24.0825 19.2751L24.0826 19.2752L26.5116 18.6838ZM27.9614 19.5659L27.3699 17.1368L27.3698 17.1369L27.9614 19.5659ZM28.8436 18.1161L31.2728 17.5253L31.2726 17.5247L28.8436 18.1161ZM23.747 7.67048L24.5914 5.31743C22.6678 4.62708 20.5496 5.62692 19.8592 7.54965L22.2121 8.39456L24.565 9.23948C24.3225 9.91462 23.5784 10.2661 22.9025 10.0235L23.747 7.67048ZM22.2121 8.39456L19.859 7.55017C19.1688 9.4734 20.1683 11.5921 22.0918 12.2824L22.9362 9.9294L23.7807 7.57634C24.4565 7.81887 24.8076 8.56328 24.5652 9.23896L22.2121 8.39456ZM30.0591 16.9331L27.7207 17.8171C28.4434 19.7288 30.5787 20.6922 32.4901 19.9696L31.606 17.6311L30.7219 15.2927C31.3933 15.0389 32.1437 15.3773 32.3976 16.049L30.0591 16.9331ZM31.606 17.6311L32.4903 19.9695C34.4011 19.2469 35.3654 17.112 34.6425 15.2002L32.3041 16.0844L29.9657 16.9685C29.7116 16.2965 30.0506 15.5465 30.7217 15.2928L31.606 17.6311ZM21.846 11.2342L22.3966 8.7956C20.4036 8.3456 18.4225 9.5962 17.9725 11.5899L20.4111 12.1404L22.8498 12.6908C22.6916 13.3916 21.9953 13.8309 21.2954 13.6728L21.846 11.2342ZM20.4111 12.1404L17.9726 11.5894C17.5221 13.5829 18.7734 15.5637 20.7664 16.0138L21.3172 13.5753L21.868 11.1367C22.5682 11.2949 23.008 11.9908 22.8496 12.6914L20.4111 12.1404ZM26.5116 18.6838L24.0826 19.2752C24.566 21.2606 26.5674 22.4784 28.5529 21.9949L27.9614 19.5659L27.3698 17.1369C28.0677 16.9669 28.7708 17.3949 28.9406 18.0924L26.5116 18.6838ZM27.9614 19.5659L28.5528 21.9949C30.5382 21.5115 31.7556 19.5105 31.2728 17.5253L28.8436 18.1161L26.4144 18.7069C26.2448 18.0097 26.6725 17.3066 27.3699 17.1368L27.9614 19.5659ZM22.9362 9.9294L22.0917 12.2824C24.6878 13.2142 26.7452 15.2372 27.7207 17.8172L30.0591 16.9331L32.3976 16.0489C30.9043 12.0994 27.7549 9.00279 23.7808 7.57637L22.9362 9.9294ZM32.3041 16.0844L34.6425 15.2002C32.9008 10.5933 29.2272 6.98127 24.5915 5.31745L23.747 7.67048L22.9024 10.0235C26.1601 11.1928 28.7416 13.731 29.9656 16.9685L32.3041 16.0844ZM21.3172 13.5753L20.7665 16.0139C22.4015 16.3831 23.6861 17.6465 24.0825 19.2751L26.5116 18.6838L28.9407 18.0925C28.0952 14.619 25.3551 11.9242 21.8679 11.1367L21.3172 13.5753ZM28.8436 18.1161L31.2726 17.5247C30.2114 13.1658 26.7727 9.78395 22.3968 8.79563L21.846 11.2342L21.2952 13.6728C23.8191 14.2428 25.8025 16.1933 26.4145 18.7075L28.8436 18.1161Z" fill="#00863B" mask="url(#path-2-inside-1_1531_5772)"/>
</svg>
