<svg width="40" height="40" viewBox="0 0 40 40" fill="none" xmlns="http://www.w3.org/2000/svg">
<path d="M16.6667 13.3333H23.3333C25.1743 13.3333 26.6667 14.8257 26.6667 16.6667C26.6667 18.5077 25.1743 20 23.3333 20M16.6667 13.3333V20M16.6667 13.3333H14.1667M16.6667 13.3333V10.8333M23.3333 20H16.6667M23.3333 20C25.1743 20 26.6667 21.4923 26.6667 23.3333C26.6667 25.1743 25.1743 26.6667 23.3333 26.6667H16.6667M16.6667 20V26.6667M16.6667 26.6667H14.1667M16.6667 26.6667V29.1667M21.6667 13.3333V10.8333M21.6667 29.1667V26.6667M35 20C35 28.2843 28.2843 35 20 35C11.7157 35 5 28.2843 5 20C5 11.7157 11.7157 5 20 5C28.2843 5 35 11.7157 35 20Z" stroke="#00863B" stroke-width="3" stroke-linecap="round" stroke-linejoin="round"/>
</svg>
