<svg width="40" height="40" viewBox="0 0 40 40" fill="none" xmlns="http://www.w3.org/2000/svg">
<path d="M33.2809 6.42871C34.918 6.42871 36.1461 6.83538 36.9651 7.64871C37.7409 8.42014 38.149 9.54657 38.1894 11.028L38.193 11.278V28.3151C38.193 29.9218 37.7835 31.1289 36.9644 31.9366C36.1892 32.7032 35.0463 33.1063 33.5359 33.1459L33.2809 33.1494H6.34085C4.70371 33.1494 3.47562 32.7454 2.65657 31.9373C1.88085 31.1706 1.47276 30.0468 1.43228 28.5659L1.42871 28.3159V11.2787C1.42871 9.66157 1.83823 8.44895 2.65728 7.64085C3.43252 6.87514 4.57538 6.47228 6.08585 6.43228L6.34085 6.42871H33.2809ZM3.94728 28.1744C3.94728 28.9882 4.15585 29.6011 4.573 30.013C4.95871 30.393 5.49919 30.5978 6.19443 30.6273L6.373 30.6309L18.8566 30.6301V22.3394H18.7473C18.4868 23.1423 18.0773 23.9089 17.5187 24.6394C16.9614 25.3684 16.3209 26.0298 15.6101 26.6101C14.9398 27.1652 14.2107 27.6452 13.4359 28.0416C12.7006 28.4116 12.0356 28.6437 11.4409 28.738C10.9932 28.7999 10.6413 28.7006 10.3851 28.4401C10.1294 28.1797 10.0016 27.8773 10.0016 27.533C10.0016 27.1573 10.1111 26.8523 10.3301 26.618C10.522 26.4123 10.7816 26.2809 11.1087 26.2237L11.2537 26.203C11.7966 26.1411 12.3751 25.9404 12.9894 25.6009C13.6279 25.2459 14.2284 24.8266 14.7816 24.3494C15.3415 23.8732 15.8596 23.3499 16.3301 22.7851C16.7268 22.3061 17.038 21.8528 17.2637 21.4251L17.3544 21.2437H3.94728V28.1744ZM35.6737 21.2437H22.2666C22.4966 21.7237 22.8382 22.2375 23.2916 22.7851C23.7623 23.3499 24.2807 23.8733 24.8409 24.3494C25.4194 24.8451 26.0137 25.2623 26.6237 25.6009C27.1666 25.9018 27.6823 26.0939 28.1709 26.1773L28.353 26.203C28.7597 26.2449 29.0725 26.383 29.2916 26.6173C29.5106 26.8525 29.6201 27.1578 29.6201 27.533C29.6201 27.8773 29.4923 28.1797 29.2366 28.4401C28.9813 28.7006 28.6294 28.7999 28.1809 28.738C27.5761 28.6437 26.9085 28.4116 26.178 28.0416C25.4068 27.6432 24.6805 27.1633 24.0116 26.6101C23.2973 26.0259 22.6611 25.3687 22.103 24.6387C21.6255 24.021 21.2427 23.3357 20.9673 22.6051L20.8744 22.3394H20.7494V30.6301H33.2494C34.0209 30.6301 34.618 30.4244 35.0409 30.013C35.4309 29.632 35.6409 29.0806 35.6709 28.3587L35.6744 28.1744L35.6737 21.2437ZM33.4244 8.95085L33.2494 8.94728H20.7494V14.3137C21.0741 13.6739 21.4993 13.0903 22.0087 12.5851C22.4817 12.1163 23.036 11.7373 23.6444 11.4666C24.2304 11.2071 24.8643 11.0738 25.5051 11.0751C26.6318 11.0751 27.568 11.448 28.3137 12.1937C29.0594 12.9394 29.4323 13.8859 29.4323 15.033C29.4323 15.6901 29.2916 16.303 29.0101 16.8716C28.7191 17.4518 28.3178 17.9697 27.8287 18.3966C27.3713 18.799 26.8623 19.1386 26.3151 19.4066L26.0687 19.523H35.6737V11.4194C35.6737 10.6056 35.4628 9.99014 35.0409 9.573C34.6509 9.18728 34.112 8.97943 33.4244 8.95085ZM18.8573 8.94728H6.37228C5.5899 8.94728 4.99014 9.15585 4.573 9.573C4.18728 9.95871 3.98014 10.5128 3.95157 11.2351L3.94728 11.4194V19.523H13.5373C12.9036 19.2354 12.3158 18.8558 11.793 18.3966C11.3027 17.9692 10.8992 17.4514 10.6044 16.8716C10.3162 16.3019 10.1685 15.6714 10.1737 15.033C10.1737 13.8859 10.5492 12.9394 11.3001 12.1937C12.0516 11.448 12.9849 11.0751 14.1001 11.0751C14.7573 11.0751 15.3832 11.2056 15.978 11.4666C16.5862 11.7374 17.1402 12.1164 17.613 12.5851C18.0557 13.0214 18.4312 13.5209 18.7273 14.0673L18.8566 14.3137L18.8573 8.94728ZM14.2266 13.2966C13.6637 13.2966 13.2151 13.4661 12.8809 13.8051C12.5475 14.1442 12.3809 14.6109 12.3809 15.2051C12.3809 15.6956 12.532 16.1832 12.8344 16.668C13.1363 17.1528 13.5535 17.5909 14.0859 17.9823C14.6448 18.3871 15.2612 18.7061 15.9144 18.9287C16.5173 19.1382 17.1516 19.2563 17.8173 19.283L18.1051 19.2887H18.5744V18.8501C18.5788 18.1269 18.4625 17.408 18.2301 16.723C18.0145 16.0815 17.6918 15.4811 17.2759 14.9473C16.8687 14.4311 16.4044 14.0268 15.883 13.7344C15.3776 13.4474 14.8063 13.2966 14.2251 13.2966M25.3794 13.2966C24.8031 13.2972 24.2368 13.4481 23.7366 13.7344C23.2151 14.0268 22.7511 14.4311 22.3444 14.9473C21.9279 15.4821 21.6028 16.0821 21.3823 16.723C21.1748 17.3181 21.058 17.941 21.0359 18.5709L21.0301 18.8501V19.2887H21.5001C22.2504 19.2941 22.9962 19.1724 23.7059 18.9287C24.3577 18.7075 24.9721 18.3884 25.528 17.9823C26.0547 17.5909 26.4694 17.1528 26.7723 16.668C27.0751 16.1832 27.2263 15.6956 27.2259 15.2051C27.2259 14.6109 27.0616 14.1442 26.733 13.8051C26.4044 13.4661 25.9532 13.2966 25.3794 13.2966Z" fill="#00863B"/>
</svg>
