<svg width="18" height="18" viewBox="0 0 18 18" fill="none" xmlns="http://www.w3.org/2000/svg">
<g clip-path="url(#clip0_1473_9995)">
<path d="M17.3123 4.07874H13.7792C13.7428 4.07874 13.7067 4.07154 13.6731 4.05757C13.6395 4.0436 13.609 4.02312 13.5833 3.99732C13.5576 3.97151 13.5373 3.94089 13.5234 3.9072C13.5096 3.87351 13.5026 3.83743 13.5028 3.80102C13.5036 3.73245 13.5263 3.67159 13.5709 3.61845L16.0909 0.73845C16.1153 0.709893 16.1457 0.687035 16.1799 0.671486C16.2141 0.655937 16.2513 0.648074 16.2889 0.64845C16.4329 0.64845 16.5499 0.766736 16.5499 0.910736V5.22174M11.3788 5.22045H8.33163V4.57116C8.33194 4.34903 8.3969 4.13179 8.51859 3.94594C8.64028 3.7601 8.81343 3.6137 9.01691 3.52459L10.7141 2.78274C10.9489 2.68049 11.1413 2.5004 11.2588 2.27282C11.3764 2.04525 11.4119 1.78411 11.3593 1.53342C11.3068 1.28274 11.1694 1.05784 10.9703 0.896631C10.7713 0.735425 10.5228 0.647773 10.2666 0.64845H9.47462C9.23829 0.648711 9.00783 0.722145 8.8149 0.858664C8.62198 0.995182 8.47606 1.18809 8.3972 1.41088M9.65077 16.7983C10.3173 17.2275 11.1106 17.4156 11.8989 17.3314C12.6871 17.2472 13.4228 16.8957 13.9836 16.3354L14.4722 15.8469C14.6889 15.6278 14.8104 15.3321 14.8104 15.024C14.8104 14.7159 14.6889 14.4202 14.4722 14.2012L12.4151 12.1569C12.1982 11.941 11.9046 11.8198 11.5986 11.8198C11.2926 11.8198 10.9991 11.941 10.7822 12.1569C10.5632 12.3736 10.2675 12.4951 9.95934 12.4951C9.65121 12.4951 9.35553 12.3736 9.13648 12.1569L5.85791 8.87831C5.64121 8.65926 5.51966 8.36358 5.51966 8.05545C5.51966 7.74732 5.64121 7.45164 5.85791 7.23259C6.07382 7.01573 6.19504 6.72218 6.19504 6.41616C6.19504 6.11015 6.07382 5.81659 5.85791 5.59974L3.87791 3.54259C3.65887 3.32589 3.36318 3.20434 3.05505 3.20434C2.74693 3.20434 2.45124 3.32589 2.2322 3.54259L1.74363 4.03116C1.17329 4.58407 0.809826 5.31585 0.713892 6.10438C0.617958 6.89291 0.795356 7.69049 1.21648 8.36402C3.45767 11.6931 6.32172 14.5571 9.65077 16.7983Z" stroke="#00863B" stroke-linecap="round" stroke-linejoin="round"/>
</g>
<defs>
<clipPath id="clip0_1473_9995">
<rect width="18" height="18" fill="white"/>
</clipPath>
</defs>
</svg>
