<svg width="64" height="61" viewBox="0 0 64 61" fill="none" xmlns="http://www.w3.org/2000/svg">
<path d="M25.5477 3.75984C28.2249 -1.25328 35.4074 -1.25328 38.0846 3.75984L62.7927 49.983C63.3717 51.0661 63.6602 52.2807 63.6302 53.5085C63.6001 54.7363 63.2525 55.9353 62.6213 56.9888C61.99 58.0423 61.0966 58.9143 60.0281 59.5198C58.9596 60.1253 57.7524 60.4437 56.5243 60.4439H7.10802C5.87988 60.4437 4.67274 60.1253 3.60424 59.5198C2.53574 58.9143 1.64232 58.0423 1.01105 56.9888C0.379774 55.9353 0.0321773 54.7363 0.00212865 53.5085C-0.02792 52.2807 0.260605 51.0661 0.839587 49.983L25.5477 3.75984ZM32.7099 6.63203C32.6229 6.4708 32.4939 6.33611 32.3365 6.24224C32.1792 6.14836 31.9994 6.0988 31.8162 6.0988C31.6329 6.0988 31.4531 6.14836 31.2958 6.24224C31.1384 6.33611 31.0094 6.4708 30.9224 6.63203L6.21427 52.8552C6.13149 53.0098 6.09016 53.1832 6.09431 53.3585C6.09845 53.5339 6.14793 53.7051 6.23792 53.8557C6.32792 54.0062 6.45536 54.1309 6.60784 54.2175C6.76032 54.3042 6.93264 54.3499 7.10802 54.3502H56.5243C56.6997 54.3499 56.872 54.3042 57.0245 54.2175C57.1769 54.1309 57.3044 54.0062 57.3944 53.8557C57.4844 53.7051 57.5339 53.5339 57.538 53.3585C57.5421 53.1832 57.5008 53.0098 57.418 52.8552L32.7099 6.63203ZM34.863 22.8658V33.022C34.863 33.8301 34.542 34.6051 33.9706 35.1765C33.3992 35.7479 32.6242 36.0689 31.8162 36.0689C31.0081 36.0689 30.2331 35.7479 29.6617 35.1765C29.0903 34.6051 28.7693 33.8301 28.7693 33.022V22.8658C28.7693 22.0577 29.0903 21.2827 29.6617 20.7113C30.2331 20.1399 31.0081 19.8189 31.8162 19.8189C32.6242 19.8189 33.3992 20.1399 33.9706 20.7113C34.542 21.2827 34.863 22.0577 34.863 22.8658ZM35.8787 44.1939C35.8787 45.2713 35.4506 46.3047 34.6888 47.0665C33.9269 47.8284 32.8936 48.2564 31.8162 48.2564C30.7387 48.2564 29.7054 47.8284 28.9435 47.0665C28.1817 46.3047 27.7537 45.2713 27.7537 44.1939C27.7537 43.1165 28.1817 42.0832 28.9435 41.3213C29.7054 40.5594 30.7387 40.1314 31.8162 40.1314C32.8936 40.1314 33.9269 40.5594 34.6888 41.3213C35.4506 42.0832 35.8787 43.1165 35.8787 44.1939Z" fill="#DC2626"/>
</svg>
