<svg width="35" height="26" viewBox="0 0 35 26" fill="none" xmlns="http://www.w3.org/2000/svg">
<path fill-rule="evenodd" clip-rule="evenodd" d="M31.3998 9.34956C27.6238 5.57377 22.5026 3.45257 17.1626 3.45257C11.8227 3.45257 6.70145 5.57377 2.92543 9.34956C2.60008 9.6641 2.1642 9.83826 1.71168 9.83455C1.25916 9.83083 0.826209 9.64953 0.506068 9.32969C0.185928 9.00985 0.00421662 8.57707 7.24629e-05 8.12455C-0.00407169 7.67203 0.169683 7.23599 0.483912 6.91035C9.69541 -2.30345 24.6299 -2.30345 33.8413 6.91035C34.0061 7.06963 34.1375 7.26013 34.2278 7.47074C34.3182 7.68134 34.3657 7.90783 34.3676 8.13699C34.3695 8.36615 34.3257 8.59338 34.2388 8.80544C34.1519 9.0175 34.0237 9.21014 33.8616 9.37211C33.6994 9.53408 33.5067 9.66214 33.2945 9.74881C33.0824 9.83549 32.8551 9.87905 32.626 9.87695C32.3968 9.87486 32.1704 9.82714 31.9599 9.73659C31.7493 9.64604 31.559 9.51447 31.3998 9.34956ZM26.5191 14.2303C25.2904 13.0015 23.8317 12.0268 22.2263 11.3618C20.621 10.6968 18.9003 10.3545 17.1626 10.3545C15.425 10.3545 13.7043 10.6968 12.0989 11.3618C10.4935 12.0268 9.03484 13.0015 7.80616 14.2303C7.479 14.5352 7.04627 14.7011 6.59916 14.6932C6.15204 14.6853 5.72545 14.5042 5.40924 14.188C5.09303 13.8718 4.9119 13.4452 4.90401 12.9981C4.89612 12.551 5.06209 12.1182 5.36695 11.7911C8.49558 8.66309 12.7385 6.90586 17.1626 6.90586C21.5867 6.90586 25.8297 8.66309 28.9583 11.7911C29.2632 12.1182 29.4291 12.551 29.4212 12.9981C29.4134 13.4452 29.2322 13.8718 28.916 14.188C28.5998 14.5042 28.1732 14.6853 27.7261 14.6932C27.279 14.7011 26.8463 14.5352 26.5191 14.2303ZM21.6361 19.1133C20.4493 17.9266 18.8398 17.26 17.1615 17.26C15.4832 17.26 13.8736 17.9266 12.6869 19.1133C12.5276 19.2781 12.3371 19.4095 12.1265 19.4998C11.9159 19.5902 11.6894 19.6377 11.4603 19.6396C11.2311 19.6414 11.0039 19.5977 10.7918 19.5108C10.5797 19.4239 10.3871 19.2957 10.2251 19.1336C10.0632 18.9714 9.93511 18.7787 9.84843 18.5665C9.76175 18.3544 9.71819 18.1271 9.72029 17.898C9.72239 17.6688 9.77011 17.4424 9.86065 17.2318C9.9512 17.0213 10.0828 16.8309 10.2477 16.6718C12.0817 14.838 14.5691 13.8078 17.1626 13.8078C19.7562 13.8078 22.2435 14.838 24.0776 16.6718C24.3824 16.999 24.5484 17.4317 24.5405 17.8788C24.5326 18.3259 24.3515 18.7525 24.0353 19.0687C23.7191 19.3849 23.2925 19.5661 22.8454 19.574C22.3982 19.5819 21.9655 19.4159 21.6384 19.111M15.1307 21.5502C15.3978 21.2831 15.715 21.0711 16.064 20.9265C16.413 20.7819 16.7871 20.7075 17.1649 20.7075C17.5427 20.7075 17.9168 20.7819 18.2659 20.9265C18.6149 21.0711 18.932 21.2831 19.1991 21.5502C19.5223 21.8738 19.7039 22.3125 19.7039 22.7699C19.7039 23.2272 19.5223 23.6659 19.1991 23.9895L18.3822 24.8064C18.0586 25.1296 17.62 25.3111 17.1626 25.3111C16.7053 25.3111 16.2666 25.1296 15.943 24.8064L15.1284 23.9918C14.8052 23.6682 14.6237 23.2295 14.6237 22.7722C14.6237 22.3148 14.8052 21.8761 15.1284 21.5525" fill="#00863B"/>
</svg>
