<svg width="35" height="35" viewBox="0 0 35 35" fill="none" xmlns="http://www.w3.org/2000/svg">
<path d="M13.4413 4.01036H24.0084C24.1358 4.00992 24.2612 4.04125 24.3734 4.10152C24.4856 4.16179 24.581 4.24909 24.6509 4.35552C24.7209 4.46195 24.7631 4.58414 24.7739 4.71104C24.7847 4.83793 24.7637 4.96552 24.7128 5.08224L20.5784 14.732H27.5478C27.6061 14.7326 27.6631 14.7499 27.712 14.7818C27.7609 14.8137 27.7996 14.8589 27.8237 14.912C27.8477 14.9652 27.8561 15.0241 27.8478 15.0819C27.8395 15.1397 27.8148 15.1938 27.7767 15.2381L13.5638 30.8583C13.525 30.9163 13.4667 30.9584 13.3995 30.9771C13.3323 30.9958 13.2606 30.9898 13.1975 30.9601C13.1343 30.9305 13.0839 30.8792 13.0553 30.8156C13.0267 30.7519 13.0219 30.6802 13.0417 30.6133L14.4519 19.3258H7.92736C7.80065 19.3275 7.67548 19.2978 7.56305 19.2393C7.45062 19.1808 7.35443 19.0954 7.28307 18.9907C7.21171 18.886 7.16741 18.7652 7.15413 18.6392C7.14084 18.5131 7.15899 18.3858 7.20695 18.2685L12.7194 4.48432C12.7779 4.34159 12.8781 4.21983 13.0069 4.135C13.1357 4.05017 13.2871 4.00768 13.4413 4.01036Z" stroke="#00863B" stroke-width="2.1875" stroke-linecap="round" stroke-linejoin="round"/>
</svg>
