<svg width="18" height="18" viewBox="0 0 18 18" fill="none" xmlns="http://www.w3.org/2000/svg">
<g id="hide" clip-path="url(#clip0_1531_6025)">
<path id="Hide" d="M10.6472 8.67308L11.6161 7.7042C11.6866 7.96794 11.7279 8.24368 11.7279 8.52942C11.7279 10.2931 10.2931 11.7279 8.52941 11.7279C8.24368 11.7279 7.96794 11.6866 7.70419 11.6161L8.67308 10.6472C9.73246 10.575 10.575 9.73246 10.6472 8.67308ZM16.9917 8.27047C16.9261 8.15252 15.9961 6.52301 14.1783 5.14204L13.4025 5.91782C14.728 6.89244 15.5679 8.02911 15.8986 8.53022C15.2667 9.49231 12.7881 12.7941 8.52941 12.7941C7.89077 12.7941 7.29691 12.7124 6.7381 12.5821L5.8621 13.4581C6.66747 13.705 7.55266 13.8603 8.52941 13.8603C14.1099 13.8603 16.8766 8.99534 16.9917 8.78836C17.0812 8.62724 17.0812 8.43159 16.9917 8.27047ZM14.7703 3.04234L3.04233 14.7703C2.93825 14.8744 2.80178 14.9265 2.66544 14.9265C2.5291 14.9265 2.39263 14.8744 2.28855 14.7703C2.08024 14.562 2.08024 14.2247 2.28855 14.0165L3.78066 12.5244C1.36844 11.0681 0.142734 8.92444 0.0671691 8.78836C-0.0223897 8.62724 -0.0223897 8.43146 0.0671691 8.27034C0.182183 8.0635 2.94891 3.19853 8.52941 3.19853C9.97235 3.19853 11.2222 3.52772 12.2906 4.01443L14.0165 2.28855C14.2248 2.08025 14.5621 2.08025 14.7703 2.28855C14.9784 2.49686 14.9786 2.83417 14.7703 3.04234ZM4.57563 11.7294L5.92528 10.3798C5.55251 9.85681 5.33088 9.2191 5.33088 8.52942C5.33088 6.76569 6.76569 5.33089 8.52941 5.33089C9.21909 5.33089 9.8568 5.55252 10.3798 5.92515L11.4711 4.83378C10.6089 4.48847 9.62904 4.26471 8.52941 4.26471C4.2707 4.26471 1.79211 7.56653 1.1604 8.52862C1.56155 9.1366 2.71462 10.6756 4.57563 11.7294ZM6.69919 9.60572L9.60572 6.69919C9.28866 6.51194 8.92363 6.39706 8.52941 6.39706C7.35369 6.39706 6.39706 7.35369 6.39706 8.52942C6.39706 8.92364 6.51194 9.28867 6.69919 9.60572Z" fill="white" style="fill:white;fill-opacity:1;"/>
</g>
<defs>
<clipPath id="clip0_1531_6025">
<rect width="17.0588" height="17.0588" fill="white" style="fill:white;fill-opacity:1;"/>
</clipPath>
</defs>
</svg>
