<svg width="149" height="149" viewBox="0 0 149 149" fill="none" xmlns="http://www.w3.org/2000/svg">
<path d="M68.2917 85.3646H74.5V60.5313M99.3333 58.9792V49.6667M55.875 102.438C65.1875 111.75 83.8125 111.75 93.125 102.438M49.6667 58.9792V49.6667M58.3583 130.375C44.4517 130.375 37.4983 130.375 32.184 127.668C27.5115 125.287 23.7127 121.488 21.3318 116.816C18.625 111.502 18.625 104.548 18.625 90.6417M130.375 90.6417C130.375 104.548 130.375 111.502 127.668 116.816C125.287 121.488 121.488 125.287 116.816 127.668C111.502 130.375 104.548 130.375 90.6417 130.375M90.6417 18.625C104.548 18.625 111.502 18.625 116.816 21.3318C121.488 23.7127 125.287 27.5115 127.668 32.184C130.375 37.4983 130.375 44.4517 130.375 58.3583M58.3583 18.625C44.4517 18.625 37.4983 18.625 32.184 21.3318C27.5115 23.7127 23.7127 27.5115 21.3318 32.184C18.625 37.4983 18.625 44.4517 18.625 58.3583" stroke="#00863B" stroke-width="9.3125" stroke-linecap="round" stroke-linejoin="round"/>
</svg>
