<svg width="19" height="19" viewBox="0 0 19 19" fill="none" xmlns="http://www.w3.org/2000/svg">
<path d="M9.5 5.54167V15.8333M9.5 5.54167H6.7009C6.28846 5.54167 5.89293 5.37485 5.6013 5.07792C5.30967 4.78099 5.14583 4.37826 5.14583 3.95833C5.14583 3.53841 5.30967 3.13568 5.6013 2.83875C5.89293 2.54181 6.28846 2.375 6.7009 2.375C8.87799 2.375 9.5 5.54167 9.5 5.54167ZM9.5 5.54167H12.2991C12.7116 5.54167 13.1071 5.37485 13.3987 5.07792C13.6903 4.78099 13.8542 4.37826 13.8542 3.95833C13.8542 3.53841 13.6903 3.13568 13.3987 2.83875C13.1071 2.54181 12.7116 2.375 12.2991 2.375C10.122 2.375 9.5 5.54167 9.5 5.54167ZM3.95833 9.5H15.0417V14.0917C15.0417 14.9784 15.0417 15.4218 14.8691 15.7605C14.7173 16.0584 14.4751 16.3007 14.1772 16.4524C13.8385 16.625 13.3951 16.625 12.5083 16.625H6.49167C5.60491 16.625 5.16154 16.625 4.82285 16.4524C4.52492 16.3007 4.2827 16.0584 4.13091 15.7605C3.95833 15.4218 3.95833 14.9784 3.95833 14.0917V9.5ZM3.64167 9.5H15.3583C15.8017 9.5 16.0234 9.5 16.1928 9.41371C16.3417 9.33779 16.4628 9.21674 16.5387 9.06775C16.625 8.89841 16.625 8.67675 16.625 8.23333V6.80833C16.625 6.36496 16.625 6.14327 16.5387 5.97392C16.4628 5.82496 16.3417 5.70386 16.1928 5.62795C16.0234 5.54167 15.8017 5.54167 15.3583 5.54167H3.64167C3.19829 5.54167 2.9766 5.54167 2.80726 5.62795C2.6583 5.70386 2.53719 5.82496 2.46128 5.97392C2.375 6.14327 2.375 6.36496 2.375 6.80833V8.23333C2.375 8.67675 2.375 8.89841 2.46128 9.06775C2.53719 9.21674 2.6583 9.33779 2.80726 9.41371C2.9766 9.5 3.19829 9.5 3.64167 9.5Z" stroke="#00863B" stroke-width="1.425" stroke-linecap="round" stroke-linejoin="round"/>
</svg>
