<svg width="40" height="32" viewBox="0 0 40 32" fill="none" xmlns="http://www.w3.org/2000/svg">
<path d="M5.454 2.666C3.948 2.666 2.728 3.86 2.728 5.334V26.666C2.728 28.14 3.948 29.334 5.454 29.334H34.546C36.052 29.334 37.272 28.14 37.272 26.666V5.334C37.272 3.86 36.052 2.666 34.546 2.666H5.454ZM34.546 0C37.558 0 40 2.388 40 5.334V26.666C40 29.612 37.558 32 34.546 32H5.454C2.442 32 0 29.612 0 26.666V5.334C0 2.388 2.442 0 5.454 0H34.546ZM16.334 22.266H8C7.82281 22.2639 7.64694 22.2967 7.48245 22.3627C7.31797 22.4286 7.16809 22.5263 7.04141 22.6502C6.91472 22.7741 6.8137 22.9218 6.74414 23.0847C6.67457 23.2477 6.63783 23.4228 6.636 23.6C6.636 24.336 7.246 24.934 8 24.934H16.334C16.511 24.9358 16.6867 24.9028 16.8509 24.8368C17.0152 24.7707 17.1648 24.673 17.2913 24.5491C17.4178 24.4252 17.5186 24.2777 17.5881 24.1148C17.6575 23.952 17.6942 23.777 17.696 23.6C17.6942 23.423 17.6575 23.248 17.5881 23.0852C17.5186 22.9223 17.4178 22.7748 17.2913 22.6509C17.1648 22.527 17.0152 22.4293 16.8509 22.3632C16.6867 22.2972 16.511 22.2642 16.334 22.266ZM27.5 6.666C24.452 6.666 21.97 9.048 21.97 12C21.97 13.546 22.65 14.936 23.738 15.91C21.678 17.126 20.304 19.316 20.304 21.818C20.304 22.532 20.416 23.234 20.634 23.904C20.864 24.604 21.632 24.992 22.348 24.768C22.517 24.7174 22.6742 24.6336 22.8104 24.5216C22.9467 24.4095 23.0592 24.2714 23.1415 24.1154C23.2238 23.9594 23.2742 23.7885 23.2897 23.6128C23.3053 23.4371 23.2856 23.26 23.232 23.092C23.0969 22.6809 23.0293 22.2507 23.032 21.818C23.032 19.468 25.026 17.552 27.5 17.552C29.974 17.552 31.97 19.468 31.97 21.818C31.97 22.1647 31.928 22.502 31.844 22.83C31.8018 23.0014 31.7942 23.1795 31.8215 23.3539C31.8487 23.5283 31.9104 23.6956 32.0029 23.846C32.0954 23.9963 32.2169 24.1268 32.3602 24.2298C32.5036 24.3328 32.666 24.4063 32.838 24.446C33.1858 24.5333 33.554 24.4802 33.8631 24.2984C34.1722 24.1165 34.3973 23.8204 34.49 23.474C34.6273 22.9327 34.696 22.3807 34.696 21.818C34.696 19.316 33.322 17.126 31.262 15.906C32.35 14.936 33.03 13.546 33.03 12C33.03 9.048 30.55 6.666 27.5 6.666ZM16.334 15.266H8C7.82281 15.2639 7.64694 15.2967 7.48245 15.3627C7.31797 15.4286 7.16809 15.5263 7.04141 15.6502C6.91472 15.7741 6.8137 15.9218 6.74414 16.0847C6.67457 16.2477 6.63783 16.4228 6.636 16.6C6.636 17.336 7.246 17.934 8 17.934H16.334C16.511 17.9358 16.6867 17.9028 16.8509 17.8368C17.0152 17.7707 17.1648 17.673 17.2913 17.5491C17.4178 17.4252 17.5186 17.2777 17.5881 17.1148C17.6575 16.952 17.6942 16.777 17.696 16.6C17.6942 16.423 17.6575 16.248 17.5881 16.0852C17.5186 15.9223 17.4178 15.7748 17.2913 15.6509C17.1648 15.527 17.0152 15.4293 16.8509 15.3632C16.6867 15.2972 16.511 15.2642 16.334 15.266ZM27.5 9.334C29.054 9.334 30.304 10.534 30.304 12C30.304 13.468 29.054 14.666 27.5 14.666C25.946 14.666 24.696 13.466 24.696 12C24.696 10.532 25.946 9.334 27.5 9.334ZM16.334 8.266H8C7.82281 8.26389 7.64694 8.29673 7.48245 8.36265C7.31797 8.42858 7.16809 8.52628 7.04141 8.65018C6.91472 8.77409 6.8137 8.92175 6.74414 9.08473C6.67457 9.24771 6.63783 9.42281 6.636 9.6C6.636 10.336 7.246 10.934 8 10.934H16.334C16.511 10.9358 16.6867 10.9028 16.8509 10.8368C17.0152 10.7707 17.1648 10.673 17.2913 10.5491C17.4178 10.4252 17.5186 10.2777 17.5881 10.1148C17.6575 9.95196 17.6942 9.77703 17.696 9.6C17.6942 9.42298 17.6575 9.24804 17.5881 9.0852C17.5186 8.92235 17.4178 8.77477 17.2913 8.6509C17.1648 8.52702 17.0152 8.42927 16.8509 8.36323C16.6867 8.29719 16.511 8.26415 16.334 8.266Z" fill="#00863B"/>
</svg>
