<svg width="24" height="24" viewBox="0 0 24 24" fill="none" xmlns="http://www.w3.org/2000/svg">
<g clip-path="url(#clip0_1473_10416)">
<path d="M4.5 12.75C4.89782 12.75 5.27936 12.592 5.56066 12.3107C5.84196 12.0294 6 11.6478 6 11.25C6 10.8522 5.84196 10.4706 5.56066 10.1893C5.27936 9.90804 4.89782 9.75 4.5 9.75C4.10218 9.75 3.72064 9.90804 3.43934 10.1893C3.15804 10.4706 3 10.8522 3 11.25C3 11.6478 3.15804 12.0294 3.43934 12.3107C3.72064 12.592 4.10218 12.75 4.5 12.75Z" fill="#00863B"/>
<path fill-rule="evenodd" clip-rule="evenodd" d="M6.74993 4.5C9.08993 4.5 11.1599 5.691 12.3749 7.5H20.2649C20.5007 7.49992 20.7332 7.55543 20.9435 7.66203C21.1538 7.76862 21.3361 7.92329 21.4754 8.1135L23.7104 11.1735C23.8907 11.4172 23.9921 11.7102 24.0009 12.0132C24.0098 12.3162 23.9257 12.6147 23.7599 12.8685L21.8699 15.7935C21.7609 15.9626 21.6188 16.1079 21.4522 16.2208C21.2856 16.3337 21.098 16.4118 20.9005 16.4505C20.703 16.4891 20.4998 16.4875 20.3029 16.4458C20.1061 16.404 19.9197 16.323 19.7549 16.2075L18.0299 15L16.2449 16.218C15.9953 16.3889 15.6999 16.4804 15.3974 16.4804C15.0949 16.4804 14.7995 16.3889 14.5499 16.218L12.7649 15H12.3779C11.1659 16.815 9.10793 18 6.75293 18C4.96272 18 3.24583 17.2888 1.97996 16.023C0.714088 14.7571 0.00292969 13.0402 0.00292969 11.25C0.00292969 9.45979 0.714088 7.7429 1.97996 6.47703C3.24583 5.21116 4.96272 4.5 6.75293 4.5H6.74993ZM12.3749 13.5C12.1282 13.4998 11.8852 13.5605 11.6675 13.6766C11.4498 13.7928 11.2641 13.9609 11.1269 14.166C10.1819 15.576 8.57693 16.506 6.76193 16.506C3.86693 16.506 1.51193 14.151 1.51193 11.256C1.51193 8.361 3.86693 6.006 6.76193 6.006C8.57693 6.006 10.1819 6.93 11.1269 8.346C11.4059 8.7615 11.8739 9.012 12.3749 9.012H20.2649L22.4999 12.072L20.6099 14.997L18.8849 13.7895C18.6346 13.6142 18.3367 13.5196 18.0311 13.5182C17.7255 13.5169 17.4268 13.6089 17.1749 13.782L15.3899 15L13.6049 13.782C13.3549 13.6108 13.0589 13.5192 12.7559 13.5195H12.3689L12.3749 13.5Z" fill="#00863B"/>
</g>
<defs>
<clipPath id="clip0_1473_10416">
<rect width="24" height="24" fill="white"/>
</clipPath>
</defs>
</svg>
