<svg width="43" height="27" viewBox="0 0 43 27" fill="none" xmlns="http://www.w3.org/2000/svg">
<path fill-rule="evenodd" clip-rule="evenodd" d="M9.65079 9.96322C9.65079 10.5189 16.4575 17.1118 17.492 17.8048C18.4209 17.1829 19.0776 16.5301 19.708 15.5891L14.2754 9.96354C15.0435 8.81537 19.2756 4.61231 20.6691 3.91669C24.2194 2.14502 27.545 5.37612 27.545 7.75217C27.545 9.95465 26.9775 11.088 25.8346 12.3146C23.0093 15.3474 19.4906 18.4714 16.4868 21.4239L2.2117 7.55126C1.32109 8.14774 0.594508 8.87499 0 9.76263L16.2856 26.2491C19.3405 23.075 25.2684 17.5726 28.4033 14.4413C31.2362 11.5004 31.8722 7.29534 29.7518 3.93678C29.1437 2.97404 28.349 2.12131 27.3879 1.47509C24.6943 -0.335772 21.149 -0.585433 18.0981 1.32127C17.3962 1.75999 9.65046 9.29394 9.65046 9.96354L9.65079 9.96322Z" fill="#00863B"/>
<path fill-rule="evenodd" clip-rule="evenodd" d="M25.7357 21.4234C25.3718 21.1797 24.9505 20.7139 24.6268 20.432C22.8692 21.6092 22.5853 22.5143 22.8034 23.118C22.9246 23.453 24.6462 25.2945 25.4166 25.8735C25.854 26.2022 26.0127 26.1393 26.3605 25.7895L41.9241 10.1758C42.3092 9.79114 42.2719 9.84186 41.9953 9.415C41.4979 8.6479 40.7671 8.05801 40.0102 7.55078C35.323 12.0944 30.5257 17.0441 25.7354 21.4234H25.7357Z" fill="#00863B"/>
</svg>
