<svg width="93" height="93" viewBox="0 0 93 93" fill="none" xmlns="http://www.w3.org/2000/svg">
<path d="M44.8994 23.1921C45.0322 23.1925 45.1649 23.193 45.3017 23.1935C47.2594 23.2038 49.1467 23.2507 51.0411 23.7938C51.1888 23.8357 51.3365 23.8777 51.4886 23.921C58.2819 25.9113 63.5921 30.1294 67.0943 36.3007C67.8979 37.8595 68.4727 39.4986 68.9781 41.1745C69.0323 41.3521 69.0323 41.3521 69.0875 41.5333C69.6908 43.6231 69.8242 45.6993 69.8182 47.8612C69.8181 48.0651 69.8181 48.0651 69.8179 48.2731C69.8106 50.4744 69.6565 52.5519 69.0236 54.6727C68.9652 54.8713 68.9652 54.8713 68.9056 55.0738C67.8799 58.4518 66.2167 61.4278 63.9376 64.118C64.386 65.2297 65.4186 66.0655 66.2463 66.9071C66.4622 67.1282 66.6764 67.3511 66.8887 67.5757C68.209 69.098 68.209 69.098 70.0169 69.7581C70.2176 69.7392 70.2176 69.7392 70.4224 69.72C71.6471 69.8047 72.6707 71.1516 73.4872 71.9591C73.6336 72.1033 73.7799 72.2476 73.9307 72.3962C74.2388 72.7009 74.5464 73.0061 74.8535 73.3118C75.322 73.7769 75.7943 74.2379 76.2668 74.6989C76.5666 74.9963 76.8662 75.294 77.1655 75.5919C77.3062 75.7282 77.447 75.8645 77.592 76.0049C78.4316 76.8514 79.0136 77.6283 79.1954 78.8309C79.124 80.0024 78.759 80.7403 77.9239 81.5555C77.3273 81.9329 76.8306 81.978 76.1302 81.9869C75.9471 81.9921 75.764 81.9972 75.5754 82.0025C74.2248 81.7998 73.2839 80.6013 72.364 79.6767C72.2173 79.5302 72.0705 79.3838 71.9193 79.233C71.6105 78.9244 71.3021 78.6154 70.9942 78.3059C70.5224 77.8322 70.0488 77.3605 69.5749 76.8889C69.2746 76.5884 68.9745 76.2878 68.6745 75.9871C68.5327 75.8461 68.391 75.7051 68.245 75.5599C68.114 75.4277 67.983 75.2956 67.848 75.1594C67.7327 75.0438 67.6174 74.9282 67.4986 74.8091C66.9509 74.1748 66.8146 73.7013 66.801 72.872C66.7101 71.8134 66.2925 71.341 65.5319 70.6386C65.4193 70.5283 65.3067 70.418 65.1906 70.3043C64.8334 69.9562 64.4709 69.6142 64.1079 69.2721C63.8633 69.0357 63.6191 68.7989 63.3753 68.5618C62.7798 67.9842 62.1795 67.4121 61.5763 66.8426C61.0265 67.1055 60.5613 67.4126 60.0758 67.7822C57.3602 69.8302 54.334 71.278 51.0411 72.1102C50.811 72.1715 50.5808 72.2329 50.3437 72.2961C46.8631 73.0664 42.49 73.0762 39.0529 72.1102C38.9098 72.0711 38.7667 72.032 38.6192 71.9918C35.1098 71.0036 31.8254 69.4209 29.0626 67.0243C28.9168 66.9004 28.9168 66.9004 28.768 66.7741C25.3465 63.8527 22.771 59.9799 21.3883 55.6944C21.3458 55.5641 21.3033 55.4338 21.2594 55.2995C20.52 52.885 20.2423 50.5112 20.2644 47.9974C20.265 47.8633 20.2655 47.7291 20.2661 47.5909C20.2793 45.4075 20.4435 43.3319 21.0704 41.2313C21.1288 41.0327 21.1288 41.0327 21.1884 40.8301C22.9506 35.0265 26.6964 30.1455 31.7872 26.8817C31.9647 26.7676 32.1422 26.6536 32.3251 26.5361C34.1907 25.3933 36.184 24.6497 38.2695 24.0208C38.3879 23.9847 38.5063 23.9487 38.6283 23.9115C40.7018 23.3129 42.7548 23.1804 44.8994 23.1921ZM29.6075 32.6942C29.4872 32.8035 29.3668 32.9129 29.2428 33.0255C26.5505 35.5113 24.9658 39.047 23.9767 42.5028C23.9146 42.7079 23.8526 42.913 23.7887 43.1243C22.9116 46.5999 23.1058 50.7106 24.1583 54.1278C24.2153 54.3148 24.2153 54.3148 24.2734 54.5057C26.0442 60.1128 30.088 64.7026 35.2589 67.4297C40.4619 70.0306 46.3957 70.3467 51.9076 68.6129C55.2419 67.4973 58.0005 65.6711 60.4864 63.2098C60.6068 63.1005 60.7271 62.9911 60.8511 62.8784C63.5435 60.3927 65.1282 56.857 66.1173 53.4012C66.1794 53.1961 66.2414 52.991 66.3053 52.7797C67.1824 49.3041 66.9882 45.1934 65.9357 41.7762C65.8977 41.6515 65.8597 41.5268 65.8206 41.3983C64.0488 35.7882 60.0024 31.1918 54.8219 28.4742C46.3467 24.2328 36.263 26.1047 29.6075 32.6942Z" fill="#8B8A96"/>
<path d="M33.7154 52.2187C33.9232 52.2166 34.131 52.2146 34.3451 52.2124C34.686 52.2147 34.686 52.2147 35.0338 52.2169C35.2761 52.2159 35.5184 52.2146 35.7607 52.213C36.4182 52.2097 37.0756 52.211 37.7332 52.2133C38.4213 52.2152 39.1094 52.2135 39.7976 52.2123C40.9532 52.211 42.1087 52.2127 43.2643 52.2162C44.6003 52.2201 45.9362 52.2189 47.2722 52.2149C48.4193 52.2116 49.5664 52.2111 50.7135 52.213C51.3986 52.2141 52.0836 52.2143 52.7687 52.2119C53.4128 52.2098 54.0568 52.2112 54.7009 52.2154C55.05 52.2169 55.3991 52.2147 55.7482 52.2124C56.0599 52.2155 56.0599 52.2155 56.3779 52.2187C56.5585 52.2189 56.7391 52.2192 56.9251 52.2195C57.5286 52.3361 57.7449 52.5647 58.1248 53.0375C58.2213 53.4008 58.2213 53.4008 58.2156 53.764C58.2184 53.9439 58.2184 53.9439 58.2213 54.1273C58.0797 54.6605 57.8231 54.8715 57.3983 55.2172C56.8971 55.3045 56.8971 55.3045 56.3153 55.2996C56.0972 55.2996 55.879 55.2995 55.6543 55.2995C55.4197 55.2957 55.185 55.292 54.9433 55.2881C54.7 55.2868 54.4567 55.2857 54.2133 55.285C53.5743 55.2822 52.9353 55.2751 52.2963 55.2671C51.6437 55.2596 50.991 55.2563 50.3384 55.2526C49.0588 55.2449 47.7793 55.2325 46.4998 55.2172C46.5055 55.4616 46.5055 55.4616 46.5113 55.711C46.5238 56.3217 46.5329 56.9323 46.5397 57.5431C46.5434 57.8063 46.5483 58.0695 46.5546 58.3326C46.5947 60.0415 46.6049 61.3521 45.4164 62.7084C45.2981 62.8063 45.1799 62.9042 45.058 63.005C44.9403 63.1057 44.8225 63.2064 44.7011 63.3101C43.5203 64.1238 42.2546 64.0585 40.869 63.9359C39.6593 63.6306 38.8372 62.7618 38.1443 61.7562C37.7682 60.9967 37.7387 60.3699 37.7456 59.5276C37.7461 59.4039 37.7466 59.2802 37.7471 59.1527C37.7492 58.7604 37.7537 58.3681 37.7584 57.9758C37.7602 57.7087 37.7618 57.4416 37.7633 57.1744C37.7673 56.522 37.7736 55.8696 37.7811 55.2172C37.5557 55.2229 37.5557 55.2229 37.3257 55.2287C36.645 55.2438 35.9643 55.2533 35.2835 55.2626C35.047 55.2687 34.8105 55.2748 34.5669 55.281C34.3398 55.2834 34.1126 55.2857 33.8786 55.2881C33.6694 55.2919 33.4601 55.2957 33.2445 55.2996C32.5804 55.1999 32.374 55.0144 31.9686 54.4906C31.8721 54.1273 31.8721 54.1273 31.8777 53.764C31.8749 53.5842 31.8749 53.5842 31.8721 53.4008C32.1263 52.4435 32.8086 52.22 33.7154 52.2187ZM40.6873 55.2172C40.6726 55.9211 40.6618 56.6247 40.6533 57.3287C40.6487 57.5275 40.6441 57.7263 40.6394 57.9311C40.6202 59.3768 40.6202 59.3768 41.2322 60.6664C41.7483 60.9244 42.1141 60.9052 42.6854 60.848C43.2026 60.4426 43.3847 60.2032 43.5936 59.5765C43.6085 59.2412 43.6131 58.9054 43.6113 58.5697C43.6104 58.2773 43.6104 58.2773 43.6095 57.979C43.608 57.7757 43.6065 57.5723 43.6049 57.3628C43.6041 57.1573 43.6033 56.9519 43.6024 56.7402C43.6003 56.2325 43.597 55.7248 43.5936 55.2172C42.6345 55.2172 41.6754 55.2172 40.6873 55.2172Z" fill="#B1B0B8"/>
<path d="M78.1816 15.5312C79.7805 16.6829 80.9822 18.2061 81.3752 20.1616C81.6182 22.4171 81.4252 24.41 80.0696 26.292C78.8322 27.7606 77.3237 28.8918 75.3682 29.1025C73.0229 29.2652 71.067 28.9808 69.2173 27.4223C67.6701 25.9453 66.8435 24.3742 66.7584 22.2259C66.7303 19.9528 67.242 18.2048 68.842 16.5288C71.345 14.1393 75.2184 13.6834 78.1816 15.5312ZM70.7151 19.0853C69.9147 20.3154 69.7992 21.4347 69.9318 22.8862C70.3036 24.123 71.111 25.0124 72.2137 25.6676C73.2866 26.1645 74.4851 26.1681 75.6173 25.8606C76.7327 25.3755 77.6049 24.4453 78.1369 23.3602C78.4895 22.2489 78.4798 20.9632 77.9808 19.9005C77.3804 18.8867 76.5209 17.9888 75.381 17.6186C73.5437 17.3571 71.9344 17.5866 70.7151 19.0853Z" fill="#28ABE2"/>
<path d="M23.2302 12.1226C24.7459 13.0264 25.6885 14.2775 26.1563 15.9839C26.3376 18.0001 26.2197 19.7501 24.9302 21.3991C23.9025 22.4994 22.6226 23.1753 21.1186 23.3105C19.1697 23.3544 17.5633 23.127 16.0809 21.7425C14.7379 20.2487 14.4256 18.6659 14.4745 16.7083C14.5607 15.1852 15.2169 13.9127 16.3477 12.896C18.2983 11.4292 20.9916 11.0484 23.2302 12.1226ZM17.9143 15.9158C17.514 16.7473 17.4744 17.438 17.6192 18.3452C18.0423 19.2241 18.5567 19.7385 19.4356 20.1616C20.3428 20.3064 21.0335 20.2668 21.865 19.8665C22.516 19.2775 22.9949 18.8057 23.1379 17.9096C23.1844 16.8772 23.0568 16.2292 22.3418 15.439C21.5516 14.724 20.9036 14.5964 19.8712 14.6429C18.9751 14.7859 18.5033 15.2648 17.9143 15.9158Z" fill="#FFBE33"/>
<path d="M49.7406 39.1252C50.5198 39.3394 51.0382 39.9372 51.5861 40.5045C51.6898 40.6083 51.7935 40.712 51.9004 40.8189C51.9765 40.895 52.0526 40.971 52.131 41.0495C52.7096 40.7958 53.0827 40.4963 53.516 40.0391C54.1013 39.4244 54.3156 39.2473 55.1962 39.1763C55.7329 39.187 55.9256 39.2211 56.3995 39.5055C56.7052 40.0149 56.8066 40.4242 56.7799 41.0204C56.5657 41.7996 55.9678 42.318 55.4005 42.8659C55.2968 42.9696 55.1931 43.0733 55.0862 43.1802C55.0101 43.2563 54.934 43.3324 54.8556 43.4108C55.1092 43.9894 55.4088 44.3625 55.866 44.7958C56.4806 45.3811 56.6578 45.5954 56.7288 46.476C56.718 47.0127 56.6839 47.2054 56.3995 47.6793C55.8901 47.985 55.4809 48.0864 54.8847 48.0596C54.1055 47.8455 53.5871 47.2476 53.0392 46.6803C52.9355 46.5766 52.8317 46.4729 52.7249 46.366C52.6488 46.2899 52.5727 46.2138 52.4943 46.1354C51.9156 46.389 51.5426 46.6886 51.1093 47.1458C50.524 47.7604 50.3096 47.9375 49.4291 48.0086C48.8924 47.9978 48.6997 47.9637 48.2257 47.6793C47.9201 47.1699 47.8187 46.7606 47.8454 46.1645C48.0596 45.3853 48.6574 44.8668 49.2247 44.319C49.3285 44.2153 49.4322 44.1115 49.5391 44.0047C49.6152 43.9286 49.6913 43.8525 49.7697 43.7741C49.516 43.1954 49.2165 42.8224 48.7593 42.3891C48.1446 41.8038 47.9675 41.5894 47.8965 40.7089C47.9072 40.1722 47.9413 39.9795 48.2257 39.5055C48.7352 39.1999 49.1444 39.0985 49.7406 39.1252Z" fill="#B1B0B8"/>
<path d="M35.2093 39.1252C35.9885 39.3394 36.507 39.9372 37.0548 40.5045C37.1586 40.6083 37.2623 40.712 37.3691 40.8189C37.4452 40.895 37.5213 40.971 37.5997 41.0495C38.1784 40.7958 38.5514 40.4963 38.9848 40.0391C39.57 39.4244 39.7844 39.2473 40.6649 39.1763C41.2016 39.187 41.3943 39.2211 41.8683 39.5055C42.174 40.0149 42.2754 40.4242 42.2486 41.0204C42.0344 41.7996 41.4366 42.318 40.8693 42.8659C40.7655 42.9696 40.6618 43.0733 40.555 43.1802C40.4789 43.2563 40.4028 43.3324 40.3244 43.4108C40.578 43.9894 40.8776 44.3625 41.3347 44.7958C41.9494 45.3811 42.1265 45.5954 42.1975 46.476C42.1868 47.0127 42.1527 47.2054 41.8683 47.6793C41.3589 47.985 40.9496 48.0864 40.3534 48.0596C39.5742 47.8455 39.0558 47.2476 38.5079 46.6803C38.4042 46.5766 38.3005 46.4729 38.1936 46.366C38.1175 46.2899 38.0414 46.2138 37.963 46.1354C37.3844 46.389 37.0113 46.6886 36.578 47.1458C35.9927 47.7604 35.7784 47.9375 34.8978 48.0086C34.3612 47.9978 34.1684 47.9637 33.6945 47.6793C33.3888 47.1699 33.2874 46.7606 33.3142 46.1645C33.5283 45.3853 34.1262 44.8668 34.6935 44.319C34.7972 44.2153 34.9009 44.1115 35.0078 44.0047C35.0839 43.9286 35.16 43.8525 35.2384 43.7741C34.9848 43.1954 34.6852 42.8224 34.228 42.3891C33.6134 41.8038 33.4363 41.5894 33.3652 40.7089C33.376 40.1722 33.4101 39.9795 33.6945 39.5055C34.2039 39.1999 34.6132 39.0985 35.2093 39.1252Z" fill="#B1B0B8"/>
<path d="M22.0936 72.9627C22.2134 72.9608 22.3333 72.959 22.4568 72.957C22.9985 73.1009 23.2132 73.3345 23.5467 73.7801C23.6176 74.3279 23.6176 74.3279 23.5921 74.9153C23.5855 75.1111 23.579 75.3068 23.5722 75.5085C23.5638 75.6574 23.5554 75.8063 23.5467 75.9598C23.6956 75.9513 23.8445 75.9429 23.998 75.9342C24.1937 75.9277 24.3894 75.9211 24.5911 75.9144C24.8819 75.9017 24.8819 75.9017 25.1786 75.8888C25.7264 75.9598 25.7264 75.9598 26.1549 76.2805C26.4693 76.7087 26.5519 76.8906 26.5438 77.4129C26.5456 77.5328 26.5475 77.6527 26.5494 77.7762C26.4056 78.3178 26.172 78.5326 25.7264 78.866C25.1786 78.937 25.1786 78.937 24.5911 78.9114C24.3954 78.9049 24.1996 78.8983 23.998 78.8916C23.849 78.8831 23.7001 78.8747 23.5467 78.866C23.5551 79.0149 23.5636 79.1639 23.5722 79.3173C23.5821 79.6109 23.5821 79.6109 23.5921 79.9105C23.6005 80.1043 23.609 80.2982 23.6176 80.498C23.5467 81.0457 23.5467 81.0457 23.226 81.4743C22.7978 81.7887 22.6158 81.8713 22.0936 81.8631C21.9137 81.8659 21.9137 81.8659 21.7303 81.8688C21.1887 81.7249 20.9739 81.4913 20.6404 81.0457C20.5695 80.498 20.5695 80.498 20.595 79.9105C20.6016 79.7147 20.6081 79.519 20.6149 79.3173C20.6233 79.1684 20.6318 79.0195 20.6404 78.866C20.4915 78.8745 20.3426 78.8829 20.1892 78.8916C19.8956 78.9014 19.8956 78.9014 19.596 78.9114C19.4021 78.9199 19.2083 78.9283 19.0085 78.937C18.4608 78.866 18.4608 78.866 18.0322 78.5453C17.7178 78.1171 17.6352 77.9352 17.6434 77.4129C17.6406 77.2331 17.6406 77.2331 17.6377 77.0496C17.7816 76.508 18.0151 76.2932 18.4608 75.9598C19.0085 75.8888 19.0085 75.8888 19.596 75.9144C19.7918 75.9209 19.9875 75.9275 20.1892 75.9342C20.4126 75.9469 20.4126 75.9469 20.6404 75.9598C20.632 75.8109 20.6236 75.6619 20.6149 75.5085C20.6083 75.3128 20.6018 75.117 20.595 74.9153C20.5866 74.7215 20.5782 74.5276 20.5695 74.3279C20.6404 73.7801 20.6404 73.7801 20.9612 73.3515C21.3893 73.0371 21.5713 72.9545 22.0936 72.9627Z" fill="#7BC169"/>
</svg>
