<svg width="33" height="33" viewBox="0 0 33 33" fill="none" xmlns="http://www.w3.org/2000/svg">
<path d="M16.5 23.1667H18.1667C19.2778 23.1667 21.5 22.5 21.5 19.8333C21.5 17.1667 19.2778 16.5 18.1667 16.5H14.8333C13.7222 16.5 11.5 15.8333 11.5 13.1667C11.5 10.5 13.7222 9.83333 14.8333 9.83333H16.5M16.5 23.1667H11.5M16.5 23.1667V26.5M16.5 9.83333H21.5M16.5 9.83333V6.5M31.5 16.5C31.5 24.7843 24.7843 31.5 16.5 31.5C8.21573 31.5 1.5 24.7843 1.5 16.5C1.5 8.21573 8.21573 1.5 16.5 1.5C24.7843 1.5 31.5 8.21573 31.5 16.5Z" stroke="#00863B" stroke-width="3" stroke-linecap="round" stroke-linejoin="round"/>
</svg>
