<svg width="19" height="19" viewBox="0 0 19 19" fill="none" xmlns="http://www.w3.org/2000/svg">
<path d="M14.25 17.4163C13.5903 17.4163 13.0295 17.1854 12.5677 16.7236C12.1059 16.2618 11.875 15.7011 11.875 15.0413C11.875 14.949 11.8816 14.8533 11.8948 14.7544C11.908 14.6554 11.9278 14.5663 11.9542 14.4872L6.37292 11.2413C6.14861 11.4393 5.89792 11.5943 5.62083 11.7064C5.34375 11.8186 5.05347 11.8747 4.75 11.8747C4.09028 11.8747 3.52951 11.6438 3.06771 11.182C2.6059 10.7202 2.375 10.1594 2.375 9.49967C2.375 8.83995 2.6059 8.27919 3.06771 7.81738C3.52951 7.35558 4.09028 7.12467 4.75 7.12467C5.05347 7.12467 5.34375 7.18075 5.62083 7.2929C5.89792 7.40506 6.14861 7.56009 6.37292 7.75801L11.9542 4.51217C11.9278 4.43301 11.908 4.34395 11.8948 4.24499C11.8816 4.14603 11.875 4.05037 11.875 3.95801C11.875 3.29829 12.1059 2.73752 12.5677 2.27572C13.0295 1.81391 13.5903 1.58301 14.25 1.58301C14.9097 1.58301 15.4705 1.81391 15.9323 2.27572C16.3941 2.73752 16.625 3.29829 16.625 3.95801C16.625 4.61773 16.3941 5.17849 15.9323 5.6403C15.4705 6.1021 14.9097 6.33301 14.25 6.33301C13.9465 6.33301 13.6563 6.27693 13.3792 6.16478C13.1021 6.05263 12.8514 5.89759 12.6271 5.69967L7.04583 8.94551C7.07222 9.02467 7.09201 9.11374 7.10521 9.21269C7.1184 9.31165 7.125 9.40731 7.125 9.49967C7.125 9.59204 7.1184 9.6877 7.10521 9.78665C7.09201 9.88561 7.07222 9.97467 7.04583 10.0538L12.6271 13.2997C12.8514 13.1018 13.1021 12.9467 13.3792 12.8346C13.6563 12.7224 13.9465 12.6663 14.25 12.6663C14.9097 12.6663 15.4705 12.8972 15.9323 13.359C16.3941 13.8209 16.625 14.3816 16.625 15.0413C16.625 15.7011 16.3941 16.2618 15.9323 16.7236C15.4705 17.1854 14.9097 17.4163 14.25 17.4163ZM14.25 4.74967C14.4743 4.74967 14.6623 4.67381 14.8141 4.52207C14.9658 4.37033 15.0417 4.18231 15.0417 3.95801C15.0417 3.7337 14.9658 3.54568 14.8141 3.39395C14.6623 3.24221 14.4743 3.16634 14.25 3.16634C14.0257 3.16634 13.8377 3.24221 13.6859 3.39395C13.5342 3.54568 13.4583 3.7337 13.4583 3.95801C13.4583 4.18231 13.5342 4.37033 13.6859 4.52207C13.8377 4.67381 14.0257 4.74967 14.25 4.74967ZM4.75 10.2913C4.97431 10.2913 5.16233 10.2155 5.31406 10.0637C5.4658 9.912 5.54167 9.72398 5.54167 9.49967C5.54167 9.27537 5.4658 9.08735 5.31406 8.93561C5.16233 8.78388 4.97431 8.70801 4.75 8.70801C4.52569 8.70801 4.33767 8.78388 4.18594 8.93561C4.0342 9.08735 3.95833 9.27537 3.95833 9.49967C3.95833 9.72398 4.0342 9.912 4.18594 10.0637C4.33767 10.2155 4.52569 10.2913 4.75 10.2913ZM14.25 15.833C14.4743 15.833 14.6623 15.7571 14.8141 15.6054C14.9658 15.4537 15.0417 15.2656 15.0417 15.0413C15.0417 14.817 14.9658 14.629 14.8141 14.4773C14.6623 14.3255 14.4743 14.2497 14.25 14.2497C14.0257 14.2497 13.8377 14.3255 13.6859 14.4773C13.5342 14.629 13.4583 14.817 13.4583 15.0413C13.4583 15.2656 13.5342 15.4537 13.6859 15.6054C13.8377 15.7571 14.0257 15.833 14.25 15.833Z" fill="#00863B"/>
</svg>
