<svg width="19" height="19" viewBox="0 0 19 19" fill="none" xmlns="http://www.w3.org/2000/svg">
<path d="M13.2744 6.77441L13.1689 6.88086L8.3125 11.7373L5.83105 9.25586L5.72559 9.14941L6.77441 8.10059L6.88086 8.20605L8.3125 9.6377L12.1191 5.83105L12.2256 5.72559L13.2744 6.77441Z" fill="#00863B" stroke="#00863B" stroke-width="0.3"/>
<path d="M15.4375 1.03711C15.7922 1.03711 16.132 1.17886 16.3828 1.42969C16.6336 1.68052 16.7754 2.02027 16.7754 2.375V10.0938L16.7715 10.3203C16.7343 11.4529 16.4085 12.5584 15.8242 13.5322C15.201 14.571 14.3068 15.4204 13.2373 15.9893L9.57031 17.9453L9.5 17.9824L9.42969 17.9453L5.7627 15.9893C4.6932 15.4204 3.79901 14.571 3.17578 13.5322C2.55262 12.4935 2.22322 11.305 2.22461 10.0938V2.375C2.22461 2.02027 2.36636 1.68052 2.61719 1.42969C2.86802 1.17886 3.20777 1.03711 3.5625 1.03711H15.4375ZM3.71289 10.0938C3.71225 11.0353 3.96768 11.9593 4.45215 12.7666C4.87604 13.473 5.46084 14.0672 6.15723 14.501L6.46289 14.6768L9.5 16.2959L12.5371 14.6777L12.8428 14.502C13.5392 14.0682 14.1239 13.4739 14.5479 12.7676C15.0324 11.9601 15.2879 11.0354 15.2871 10.0938V2.52539H3.71289V10.0938Z" fill="#00863B" stroke="#00863B" stroke-width="0.3"/>
</svg>
