<svg width="24" height="24" viewBox="0 0 24 24" fill="none" xmlns="http://www.w3.org/2000/svg">
<path d="M8.29412 2H11.4831C12.26 2 12.6485 2 13.014 2.08869C13.3381 2.16732 13.648 2.29702 13.9322 2.47302C14.2528 2.67152 14.5274 2.94911 15.0768 3.50427L21 9.48985M7.28803 9.54314H7.29862M9.36541 5.20994H8.08235C6.30336 5.20994 5.41387 5.20994 4.73438 5.5598C4.13669 5.86755 3.65075 6.3586 3.34621 6.96259C3 7.64924 3 8.5481 3 10.3458V11.6424C3 12.4275 3 12.8201 3.08777 13.1895C3.16558 13.517 3.29392 13.8302 3.46808 14.1174C3.66452 14.4413 3.93921 14.7189 4.48859 15.274L7.87682 18.698C9.13476 19.9692 9.76373 20.6048 10.489 20.8429C11.127 21.0524 11.8142 21.0524 12.4522 20.8429C13.1775 20.6048 13.8064 19.9692 15.0644 18.698L16.3474 17.4014C17.6053 16.1302 18.2343 15.4946 18.47 14.7617C18.6773 14.117 18.6773 13.4225 18.47 12.7778C18.2343 12.0449 17.6053 11.4093 16.3474 10.1381L12.9592 6.7142C12.4098 6.15904 12.1351 5.88146 11.8146 5.68295C11.5303 5.50696 11.2205 5.37726 10.8964 5.29863C10.5308 5.20994 10.1423 5.20994 9.36541 5.20994ZM7.81744 9.54314C7.81744 9.83861 7.58041 10.0781 7.28803 10.0781C6.99564 10.0781 6.75862 9.83861 6.75862 9.54314C6.75862 9.24768 6.99564 9.00815 7.28803 9.00815C7.58041 9.00815 7.81744 9.24768 7.81744 9.54314Z" stroke="#00863B" stroke-width="1.5" stroke-linecap="round" stroke-linejoin="round"/>
</svg>
