<svg width="16" height="16" viewBox="0 0 16 16" fill="none" xmlns="http://www.w3.org/2000/svg">
<path d="M0.75 7.6875C0.75 9.52744 1.48091 11.292 2.78195 12.5931C4.08298 13.8941 5.84756 14.625 7.6875 14.625V0.75C5.84756 0.75 4.08298 1.48091 2.78195 2.78195C1.48091 4.08298 0.75 5.84756 0.75 7.6875Z" fill="#00863B"/>
<path d="M7.6875 14.625C9.52744 14.625 11.292 13.8941 12.5931 12.5931C13.8941 11.292 14.625 9.52744 14.625 7.6875C14.625 5.84756 13.8941 4.08298 12.5931 2.78195C11.292 1.48091 9.52744 0.75 7.6875 0.75M7.6875 14.625C5.84756 14.625 4.08298 13.8941 2.78195 12.5931C1.48091 11.292 0.75 9.52744 0.75 7.6875C0.75 5.84756 1.48091 4.08298 2.78195 2.78195C4.08298 1.48091 5.84756 0.75 7.6875 0.75M7.6875 14.625V0.75" stroke="#00863B" stroke-width="1.5" stroke-linecap="round" stroke-linejoin="round"/>
</svg>
