<svg width="39" height="39" viewBox="0 0 39 39" fill="none" xmlns="http://www.w3.org/2000/svg">
<path d="M16.2499 22.75L34.1249 4.875M16.2499 22.75L21.9374 34.125C22.0087 34.2806 22.1232 34.4124 22.2672 34.5049C22.4113 34.5973 22.5788 34.6464 22.7499 34.6464C22.9211 34.6464 23.0886 34.5973 23.2326 34.5049C23.3767 34.4124 23.4911 34.2806 23.5624 34.125L34.1249 4.875M16.2499 22.75L4.87493 17.0625C4.71935 16.9912 4.58751 16.8767 4.49508 16.7327C4.40265 16.5887 4.35352 16.4211 4.35352 16.25C4.35352 16.0789 4.40265 15.9113 4.49508 15.7673C4.58751 15.6233 4.71935 15.5088 4.87493 15.4375L34.1249 4.875" stroke="#00863B" stroke-width="2.5" stroke-linecap="round" stroke-linejoin="round"/>
</svg>
