<svg width="24" height="24" viewBox="0 0 24 24" fill="none" xmlns="http://www.w3.org/2000/svg">
<path d="M12 22.5L7.36801 20.0303C6.0474 19.3279 4.94303 18.2791 4.17348 16.9964C3.40393 15.7138 2.99825 14.2458 3.00001 12.75V3C3.00001 2.60218 3.15804 2.22064 3.43935 1.93934C3.72065 1.65804 4.10218 1.5 4.50001 1.5H19.5C19.8978 1.5 20.2794 1.65804 20.5607 1.93934C20.842 2.22064 21 2.60218 21 3V12.75C21.0018 14.2458 20.5961 15.7138 19.8265 16.9964C19.057 18.2791 17.9526 19.3279 16.632 20.0303L12 22.5ZM4.50001 3V12.75C4.49917 13.9738 4.83141 15.1747 5.46111 16.224C6.09082 17.2733 6.99423 18.1315 8.07451 18.7065L12 20.7997L15.9255 18.7073C17.0059 18.1322 17.9094 17.2739 18.5391 16.2244C19.1688 15.175 19.501 13.9739 19.5 12.75V3H4.50001Z" fill="#00863B"/>
<path d="M7.33334 14.5013C7.33334 13.8825 7.57918 13.289 8.01676 12.8514C8.45435 12.4138 9.04784 12.168 9.66668 12.168H14.3333C14.9522 12.168 15.5457 12.4138 15.9833 12.8514C16.4208 13.289 16.6667 13.8825 16.6667 14.5013C16.6667 14.8107 16.5438 15.1075 16.325 15.3263C16.1062 15.5451 15.8094 15.668 15.5 15.668H8.50001C8.19059 15.668 7.89384 15.5451 7.67505 15.3263C7.45626 15.1075 7.33334 14.8107 7.33334 14.5013Z" stroke="#00863B" stroke-width="1.16667" stroke-linejoin="round"/>
<path d="M12 9.83203C12.9665 9.83203 13.75 9.04853 13.75 8.08203C13.75 7.11553 12.9665 6.33203 12 6.33203C11.0335 6.33203 10.25 7.11553 10.25 8.08203C10.25 9.04853 11.0335 9.83203 12 9.83203Z" stroke="#00863B" stroke-width="1.16667"/>
</svg>
