<svg width="53" height="48" viewBox="0 0 53 48" fill="none" xmlns="http://www.w3.org/2000/svg">
<path d="M44.625 10.5H42V7.875C42 5.78642 41.1703 3.78338 39.6935 2.30653C38.2166 0.829685 36.2136 0 34.125 0H7.875C5.78642 0 3.78338 0.829685 2.30653 2.30653C0.829685 3.78338 0 5.78642 0 7.875V39.375C0 41.4636 0.829685 43.4666 2.30653 44.9435C3.78338 46.4203 5.78642 47.25 7.875 47.25H44.625C46.7136 47.25 48.7166 46.4203 50.1935 44.9435C51.6703 43.4666 52.5 41.4636 52.5 39.375V18.375C52.5 16.2864 51.6703 14.2834 50.1935 12.8065C48.7166 11.3297 46.7136 10.5 44.625 10.5ZM7.875 5.25H34.125C34.8212 5.25 35.4889 5.52656 35.9812 6.01885C36.4734 6.51113 36.75 7.17881 36.75 7.875V10.5H7.875C7.17881 10.5 6.51113 10.2234 6.01885 9.73115C5.52656 9.23887 5.25 8.57119 5.25 7.875C5.25 7.17881 5.52656 6.51113 6.01885 6.01885C6.51113 5.52656 7.17881 5.25 7.875 5.25ZM47.25 31.5H44.625C43.9288 31.5 43.2611 31.2234 42.7688 30.7312C42.2766 30.2389 42 29.5712 42 28.875C42 28.1788 42.2766 27.5111 42.7688 27.0188C43.2611 26.5266 43.9288 26.25 44.625 26.25H47.25V31.5ZM47.25 21H44.625C42.5364 21 40.5334 21.8297 39.0565 23.3065C37.5797 24.7834 36.75 26.7864 36.75 28.875C36.75 30.9636 37.5797 32.9666 39.0565 34.4435C40.5334 35.9203 42.5364 36.75 44.625 36.75H47.25V39.375C47.25 40.0712 46.9734 40.7389 46.4812 41.2312C45.9889 41.7234 45.3212 42 44.625 42H7.875C7.17881 42 6.51113 41.7234 6.01885 41.2312C5.52656 40.7389 5.25 40.0712 5.25 39.375V15.3038C6.09333 15.6004 6.98101 15.7513 7.875 15.75H44.625C45.3212 15.75 45.9889 16.0266 46.4812 16.5188C46.9734 17.0111 47.25 17.6788 47.25 18.375V21Z" fill="#00863B"/>
</svg>
